# xmcd
#
# Track frame offsets:
#	150
#	26344
#	41968
#	65521
#	103348
#	144036
#	190033
#
# Disc length: 3132 seconds
#
# Revision: 1
# Processed by: cddbd v1.5.2PL0 Copyright (c) Steve Scherf et al.
# Submitted via: audiograbber 1.83.01
#
DISCID=5b0c3a07
DTITLE=Grateful Dead - 77-12-27 Winterland Arena, San Francisco CA
DYEAR=1900
DGENRE=
TTITLE0=Cold Rain and Snow
TTITLE1=Lazy Lightning
TTITLE2=Supplication
TTITLE3=Scarlet Begonias
TTITLE4=Fire On The Mountain
TTITLE5=Estimated Prophet
TTITLE6=He's Gone
EXTD=
EXTT0=
EXTT1=
EXTT2=
EXTT3=
EXTT4=
EXTT5=
EXTT6=
PLAYORDER=
